<svg width="100" height="100" viewBox="0 0 100 100" fill="none" xmlns="http://www.w3.org/2000/svg">
<rect width="100" height="100" rx="20" fill="#111111"/>
<rect x="0.5" y="0.5" width="99" height="99" rx="19.5" stroke="white" stroke-opacity="0.11"/>
<path d="M27.8809 29.9134C27.7672 28.9048 27.2985 28.1236 26.4746 27.5696C25.6507 27.0085 24.6138 26.728 23.3638 26.728C22.4689 26.728 21.6948 26.87 21.0414 27.1541C20.388 27.4311 19.8801 27.8146 19.5179 28.3047C19.1628 28.7876 18.9853 29.3381 18.9853 29.956C18.9853 30.4744 19.106 30.9219 19.3475 31.2983C19.5961 31.6747 19.9192 31.9908 20.3169 32.2464C20.7218 32.495 21.155 32.7045 21.6167 32.875C22.0783 33.0384 22.5222 33.1733 22.9483 33.2798L25.079 33.8338C25.775 34.0043 26.4888 34.2351 27.2203 34.5263C27.9519 34.8175 28.6301 35.201 29.2551 35.6768C29.8801 36.1527 30.3844 36.7422 30.7679 37.4453C31.1586 38.1484 31.3539 38.9901 31.3539 39.9702C31.3539 41.206 31.0343 42.3033 30.3951 43.2621C29.763 44.2209 28.8432 44.9773 27.6358 45.5312C26.4355 46.0852 24.9831 46.3622 23.2786 46.3622C21.6451 46.3622 20.2317 46.103 19.0385 45.5845C17.8453 45.0661 16.9114 44.331 16.2367 43.3793C15.562 42.4205 15.1891 41.2841 15.1181 39.9702H18.4206C18.4846 40.7585 18.7402 41.4155 19.1877 41.9411C19.6422 42.4595 20.2211 42.8466 20.9242 43.1023C21.6344 43.3509 22.4121 43.4751 23.2573 43.4751C24.1877 43.4751 25.0151 43.3295 25.7395 43.0384C26.4711 42.7401 27.0463 42.3281 27.4654 41.8026C27.8844 41.2699 28.0939 40.6484 28.0939 39.9382C28.0939 39.2919 27.9093 38.7628 27.54 38.3509C27.1777 37.9389 26.6841 37.598 26.0591 37.3281C25.4412 37.0582 24.7417 36.8203 23.9604 36.6143L21.3823 35.9112C19.6351 35.4354 18.2502 34.7358 17.2275 33.8125C16.2118 32.8892 15.704 31.6676 15.704 30.1477C15.704 28.8906 16.0449 27.7933 16.7267 26.8558C17.4086 25.9183 18.3319 25.1903 19.4966 24.6719C20.6614 24.1463 21.9753 23.8835 23.4384 23.8835C24.9157 23.8835 26.2189 24.1428 27.3482 24.6612C28.4846 25.1797 29.3794 25.8935 30.0328 26.8026C30.6863 27.7045 31.0272 28.7415 31.0556 29.9134H27.8809ZM35.032 52.1364V29.6364H38.1428V32.2891H38.4091C38.5938 31.9482 38.8601 31.554 39.2081 31.1065C39.5561 30.6591 40.0391 30.2685 40.657 29.9347C41.2749 29.5938 42.0916 29.4233 43.1072 29.4233C44.4283 29.4233 45.6072 29.7571 46.6442 30.4247C47.6811 31.0923 48.4943 32.0547 49.0838 33.3118C49.6804 34.5689 49.9787 36.0817 49.9787 37.8501C49.9787 39.6186 49.6839 41.1349 49.0945 42.3991C48.505 43.6562 47.6953 44.6257 46.6655 45.3075C45.6357 45.9822 44.4602 46.3196 43.1392 46.3196C42.1449 46.3196 41.3317 46.1527 40.6996 45.8189C40.0746 45.4851 39.5845 45.0945 39.2294 44.647C38.8743 44.1996 38.6009 43.8018 38.4091 43.4538H38.2173V52.1364H35.032ZM38.1534 37.8182C38.1534 38.9687 38.3203 39.9773 38.6541 40.8438C38.9879 41.7102 39.4709 42.3885 40.103 42.8786C40.7351 43.3615 41.5092 43.603 42.4254 43.603C43.3771 43.603 44.1726 43.3509 44.8118 42.8466C45.451 42.3352 45.9339 41.6428 46.2607 40.7692C46.5945 39.8956 46.7614 38.9119 46.7614 37.8182C46.7614 36.7386 46.598 35.7692 46.2713 34.9098C45.9517 34.0504 45.4688 33.3722 44.8224 32.875C44.1832 32.3778 43.3842 32.1293 42.4254 32.1293C41.5021 32.1293 40.7209 32.3672 40.0817 32.843C39.4496 33.3189 38.9702 33.983 38.6435 34.8352C38.3168 35.6875 38.1534 36.6818 38.1534 37.8182ZM58.3097 46.3622C57.2727 46.3622 56.3352 46.1705 55.4972 45.7869C54.6591 45.3963 53.995 44.8317 53.505 44.093C53.022 43.3544 52.7805 42.4489 52.7805 41.3764C52.7805 40.4531 52.9581 39.6932 53.3132 39.0966C53.6683 38.5 54.1477 38.0277 54.7514 37.6797C55.3551 37.3317 56.0298 37.0689 56.7756 36.8913C57.5213 36.7138 58.2813 36.5788 59.0554 36.4865C60.0355 36.3729 60.831 36.2805 61.4418 36.2095C62.0526 36.1314 62.4964 36.0071 62.7734 35.8366C63.0504 35.6662 63.1889 35.3892 63.1889 35.0057V34.9311C63.1889 34.0007 62.9261 33.2798 62.4006 32.7685C61.8821 32.2571 61.108 32.0014 60.0781 32.0014C59.0057 32.0014 58.1605 32.2393 57.5426 32.7152C56.9318 33.1839 56.5092 33.706 56.2749 34.2812L53.2812 33.5994C53.6364 32.6051 54.1548 31.8026 54.8366 31.1918C55.5256 30.5739 56.3175 30.1264 57.2124 29.8494C58.1072 29.5653 59.0483 29.4233 60.0355 29.4233C60.6889 29.4233 61.3814 29.5014 62.1129 29.6577C62.8516 29.8068 63.5405 30.0838 64.1797 30.4886C64.826 30.8935 65.3551 31.4723 65.767 32.2251C66.179 32.9709 66.3849 33.9403 66.3849 35.1335V46H63.2741V43.7628H63.1463C62.9403 44.1747 62.6314 44.5795 62.2195 44.9773C61.8075 45.375 61.2784 45.7053 60.6321 45.968C59.9858 46.2308 59.2116 46.3622 58.3097 46.3622ZM59.0021 43.8054C59.8828 43.8054 60.6357 43.6314 61.2607 43.2834C61.8928 42.9354 62.3722 42.4808 62.6989 41.9197C63.0327 41.3516 63.1996 40.7443 63.1996 40.098V37.9886C63.0859 38.1023 62.8658 38.2088 62.5391 38.3082C62.2195 38.4006 61.8537 38.4822 61.4418 38.5533C61.0298 38.6172 60.6286 38.6776 60.2379 38.7344C59.8473 38.7841 59.5206 38.8267 59.2578 38.8622C58.6399 38.9403 58.0753 39.0717 57.5639 39.2564C57.0597 39.4411 56.6548 39.7074 56.3494 40.0554C56.0511 40.3963 55.902 40.8509 55.902 41.419C55.902 42.2074 56.1932 42.804 56.7756 43.2088C57.358 43.6065 58.1001 43.8054 59.0021 43.8054ZM73.813 36.2841V46H70.6277V29.6364H73.6852V32.2997H73.8876C74.264 31.4332 74.8535 30.7372 75.6561 30.2116C76.4657 29.6861 77.4849 29.4233 78.7136 29.4233C79.8287 29.4233 80.8052 29.6577 81.6433 30.1264C82.4814 30.5881 83.1312 31.277 83.5929 32.1932C84.0545 33.1094 84.2853 34.2422 84.2853 35.5916V46H81.1V35.9751C81.1 34.7891 80.791 33.8622 80.1731 33.1946C79.5552 32.5199 78.7065 32.1825 77.627 32.1825C76.8883 32.1825 76.2314 32.3423 75.6561 32.6619C75.0879 32.9815 74.6369 33.4503 74.3031 34.0682C73.9764 34.679 73.813 35.4176 73.813 36.2841Z" fill="white"/>
<rect x="7" y="59" width="86" height="19" rx="2" fill="white" fill-opacity="0.12"/>
<path fill-rule="evenodd" clip-rule="evenodd" d="M15 69V59.25C15 59.1119 15.1119 59 15.25 59H16.75C16.8881 59 17 59.1119 17 59.25V69C17 69.5523 16.5523 70 16 70C15.4477 70 15 69.5523 15 69Z" fill="white"/>
<path fill-rule="evenodd" clip-rule="evenodd" d="M23.5 63V59.25C23.5 59.1119 23.6119 59 23.75 59H25.25C25.3881 59 25.5 59.1119 25.5 59.25V63C25.5 63.5523 25.0523 64 24.5 64C23.9477 64 23.5 63.5523 23.5 63Z" fill="white"/>
<path fill-rule="evenodd" clip-rule="evenodd" d="M32 66V59.25C32 59.1119 32.1119 59 32.25 59H33.75C33.8881 59 34 59.1119 34 59.25V66C34 66.5523 33.5523 67 33 67C32.4477 67 32 66.5523 32 66Z" fill="white"/>
<path fill-rule="evenodd" clip-rule="evenodd" d="M40.5 63V59.25C40.5 59.1119 40.6119 59 40.75 59H42.25C42.3881 59 42.5 59.1119 42.5 59.25V63C42.5 63.5523 42.0523 64 41.5 64C40.9477 64 40.5 63.5523 40.5 63Z" fill="white"/>
<path fill-rule="evenodd" clip-rule="evenodd" d="M49 69V59.25C49 59.1119 49.1119 59 49.25 59H50.75C50.8881 59 51 59.1119 51 59.25V69C51 69.5523 50.5523 70 50 70C49.4477 70 49 69.5523 49 69Z" fill="white"/>
<path fill-rule="evenodd" clip-rule="evenodd" d="M57.5 63V59.25C57.5 59.1119 57.6119 59 57.75 59H59.25C59.3881 59 59.5 59.1119 59.5 59.25V63C59.5 63.5523 59.0523 64 58.5 64C57.9477 64 57.5 63.5523 57.5 63Z" fill="white"/>
<path fill-rule="evenodd" clip-rule="evenodd" d="M66 66V59.25C66 59.1119 66.1119 59 66.25 59H67.75C67.8881 59 68 59.1119 68 59.25V66C68 66.5523 67.5523 67 67 67C66.4477 67 66 66.5523 66 66Z" fill="white"/>
<path fill-rule="evenodd" clip-rule="evenodd" d="M74.5 63V59.25C74.5 59.1119 74.6119 59 74.75 59H76.25C76.3881 59 76.5 59.1119 76.5 59.25V63C76.5 63.5523 76.0523 64 75.5 64C74.9477 64 74.5 63.5523 74.5 63Z" fill="white"/>
<path fill-rule="evenodd" clip-rule="evenodd" d="M83 69V59.25C83 59.1119 83.1119 59 83.25 59H84.75C84.8881 59 85 59.1119 85 59.25V69C85 69.5523 84.5523 70 84 70C83.4477 70 83 69.5523 83 69Z" fill="white"/>
</svg>
 